<?xml version="1.0" encoding="utf-8"?>
<!-- Generator: Adobe Illustrator 27.2.0, SVG Export Plug-In . SVG Version: 6.00 Build 0)  -->
<svg version="1.1" id="Layer_1" xmlns="http://www.w3.org/2000/svg" xmlns:xlink="http://www.w3.org/1999/xlink" x="0px" y="0px"
	 viewBox="0 0 288 167.62" style="enable-background:new 0 0 288 167.62;" xml:space="preserve">
<style type="text/css">
	.st0{display:none;fill:#41B6E6;}
	.st1{display:none;fill:#9600FF;}
	.st2{fill:none;stroke:url(#SVGID_1_);stroke-width:1.6623;stroke-miterlimit:10;}
	.st3{fill:#41B6E6;}
	.st4{fill:#9600FF;}
</style>
<g id="_x31_00_x25__Full_Color">
	<path class="st0" d="M161.66-90.47V24.99c0,25.27-36.13,58.94-59.04,58.93c-27.12,2.81-49.56-4.68-62.18-16.36
		C21.86,49.32,22.18,30.92,22.21,20.34h35.06c1.4,27.58,11.22,36.47,31.79,36.47c18.7,1.87,35.53-14.03,36.93-31.82v-61.22
		C125.53-54,145.89-78.31,161.66-90.47z"/>
	<path class="st1" d="M166.2-36.23v-56.1c17.97-8.25,55.38-9.79,71.53,0c24.77,15.95,30.86,47.02,30.86,56.1h-35.53
		c0-30.69-15.66-33.03-24.27-33.03C196.04-69.27,166.2-67.67,166.2-36.23z"/>
	<path class="st1" d="M166.2,27.35c-0.65,6.85-10.82,27.01-18.93,36.23c9.35,13.43,39.27,21.28,45.82,20.93
		c14.49,1.05,39.04-1.53,51.66-12.51c19.87-14.96,23.85-35.3,23.85-51.9h-36.47c0,17.53-4.91,34.36-20.57,35.3
		c-18,2.1-30.75-2.99-36.47-9.35C168.22,37.55,166.91,33.89,166.2,27.35z"/>
	<linearGradient id="SVGID_1_" gradientUnits="userSpaceOnUse" x1="32.4931" y1="100.7498" x2="268.594" y2="100.7498">
		<stop  offset="0" style="stop-color:#41B6E6"/>
		<stop  offset="0.1126" style="stop-color:#4D9CEA"/>
		<stop  offset="0.4253" style="stop-color:#6C5AF3"/>
		<stop  offset="0.688" style="stop-color:#8329F9"/>
		<stop  offset="0.8874" style="stop-color:#910BFD"/>
		<stop  offset="1" style="stop-color:#9600FF"/>
	</linearGradient>
	<line class="st2" x1="268.59" y1="100.75" x2="32.49" y2="100.75"/>
	<g>
		<path class="st3" d="M33.25,104.99h7.24v16.5c0,2.58-0.03,4.74-0.09,6.48c-0.06,1.74-0.16,3.19-0.29,4.34
			c-0.14,1.15-0.3,2.08-0.5,2.77c-0.2,0.69-0.44,1.27-0.74,1.75c-0.3,0.51-0.66,0.94-1.08,1.3c-0.42,0.36-0.94,0.65-1.55,0.88
			c-0.61,0.23-1.35,0.38-2.2,0.47c-0.85,0.09-1.84,0.13-2.95,0.13c-1.89,0-3.41-0.21-4.56-0.63c-1.15-0.42-2.05-1.06-2.68-1.93
			s-1.04-1.97-1.24-3.31c-0.2-1.33-0.29-2.9-0.29-4.7c0-0.96,0.04-1.98,0.13-3.06h6.3c0,0.69,0.01,1.3,0.02,1.82
			c0.01,0.52,0.04,0.99,0.07,1.39c0.03,0.41,0.07,0.77,0.13,1.1c0.06,0.33,0.13,0.64,0.22,0.94c0.21,0.51,0.75,0.76,1.62,0.76
			c0.69,0,1.17-0.06,1.44-0.18c0.27-0.12,0.47-0.33,0.58-0.63c0.06-0.24,0.12-0.52,0.18-0.85c0.06-0.33,0.1-0.82,0.13-1.48
			c0.03-0.66,0.05-1.55,0.07-2.67c0.01-1.12,0.02-2.63,0.02-4.52V104.99z"/>
		<path class="st3" d="M59.47,136.82c-0.3,0.54-0.65,0.98-1.06,1.33c-0.41,0.35-0.91,0.63-1.51,0.85c-0.6,0.23-1.3,0.38-2.11,0.47
			c-0.81,0.09-1.75,0.13-2.83,0.13c-2.19,0-3.84-0.2-4.97-0.61c-1.12-0.4-1.99-1.13-2.59-2.18c-0.3-0.51-0.55-1.07-0.76-1.69
			c-0.21-0.61-0.38-1.45-0.52-2.5c-0.13-1.05-0.23-2.42-0.29-4.12c-0.06-1.69-0.09-3.87-0.09-6.54c0-2.67,0.03-4.84,0.09-6.52
			s0.16-3.04,0.29-4.09c0.13-1.05,0.31-1.87,0.52-2.47c0.21-0.6,0.46-1.17,0.76-1.71c0.3-0.51,0.65-0.94,1.06-1.3
			c0.4-0.36,0.91-0.65,1.51-0.88s1.31-0.38,2.14-0.47s1.78-0.13,2.86-0.13c2.16,0,3.8,0.21,4.92,0.63c1.12,0.42,1.99,1.14,2.59,2.16
			c0.3,0.54,0.55,1.11,0.76,1.71c0.21,0.6,0.38,1.42,0.52,2.47c0.13,1.05,0.23,2.41,0.29,4.09c0.06,1.68,0.09,3.85,0.09,6.52
			c0,2.67-0.03,4.85-0.09,6.54c-0.06,1.69-0.16,3.07-0.29,4.12c-0.13,1.05-0.31,1.88-0.52,2.5
			C60.02,135.75,59.77,136.32,59.47,136.82z M53.71,131.2c0.06-0.21,0.12-0.48,0.18-0.81c0.06-0.33,0.1-0.82,0.13-1.48
			c0.03-0.66,0.05-1.55,0.07-2.67c0.01-1.12,0.02-2.6,0.02-4.43c0-1.89-0.01-3.4-0.02-4.54c-0.02-1.14-0.04-2.05-0.07-2.72
			c-0.03-0.67-0.07-1.18-0.13-1.51c-0.06-0.33-0.12-0.6-0.18-0.81c-0.12-0.3-0.3-0.52-0.54-0.65c-0.24-0.13-0.64-0.2-1.21-0.2
			c-0.57,0-0.98,0.07-1.24,0.2c-0.25,0.13-0.43,0.35-0.52,0.65c-0.09,0.21-0.16,0.48-0.2,0.81c-0.05,0.33-0.09,0.83-0.14,1.51
			c-0.04,0.67-0.07,1.58-0.09,2.72c-0.01,1.14-0.02,2.65-0.02,4.54c0,1.83,0.01,3.3,0.02,4.43c0.01,1.12,0.04,2.02,0.09,2.67
			c0.04,0.66,0.09,1.15,0.14,1.48c0.04,0.33,0.11,0.6,0.2,0.81c0.09,0.3,0.26,0.51,0.52,0.63c0.25,0.12,0.67,0.18,1.24,0.18
			c0.57,0,0.97-0.06,1.21-0.18C53.41,131.71,53.59,131.5,53.71,131.2z"/>
		<path class="st3" d="M75.25,139.03v-13.99h-4.41v13.99h-7.24v-34.04h7.24v13.18h4.41v-13.18h7.24v34.04H75.25z"/>
		<path class="st3" d="M100.21,139.03l-8.05-18.26h-0.27v18.26h-6.43v-34.04h6.92l4.77,11.83h0.27v-11.83h6.48v34.04H100.21z"/>
		<path class="st4" d="M133.4,125.99c0.09,1.08,0.13,2.1,0.13,3.06c0,1.8-0.1,3.37-0.29,4.7c-0.19,1.33-0.61,2.44-1.24,3.31
			c-0.63,0.87-1.52,1.51-2.68,1.93c-1.15,0.42-2.67,0.63-4.56,0.63c-2.25,0-3.96-0.2-5.15-0.61c-1.18-0.4-2.06-1.13-2.63-2.18
			c-0.3-0.48-0.56-1.05-0.76-1.71c-0.21-0.66-0.38-1.54-0.52-2.65c-0.13-1.11-0.23-2.52-0.29-4.23c-0.06-1.71-0.09-3.88-0.09-6.52
			c0-2.64,0.03-4.78,0.09-6.43c0.06-1.65,0.16-3,0.29-4.05c0.14-1.05,0.31-1.87,0.52-2.47c0.21-0.6,0.46-1.15,0.76-1.66
			c0.6-1.02,1.47-1.72,2.61-2.11c1.14-0.39,2.79-0.58,4.95-0.58c1.92,0,3.46,0.18,4.63,0.54c1.17,0.36,2.07,0.94,2.7,1.75
			c0.63,0.81,1.05,1.85,1.26,3.13c0.21,1.27,0.31,2.81,0.31,4.61c0,0.42-0.01,0.89-0.02,1.39c-0.02,0.51-0.04,1.05-0.07,1.62h-6.61
			c0-0.9-0.01-1.65-0.02-2.25c-0.01-0.6-0.04-1.09-0.07-1.48c-0.03-0.39-0.07-0.7-0.11-0.92s-0.08-0.41-0.11-0.56
			c-0.12-0.57-0.75-0.85-1.89-0.85c-0.57,0-0.98,0.07-1.24,0.2c-0.26,0.13-0.43,0.35-0.52,0.65c-0.09,0.24-0.16,0.52-0.2,0.83
			c-0.04,0.32-0.09,0.79-0.13,1.44c-0.04,0.64-0.07,1.54-0.09,2.68c-0.02,1.14-0.02,2.62-0.02,4.45c0,1.89,0.01,3.4,0.02,4.54
			c0.01,1.14,0.04,2.04,0.09,2.7c0.04,0.66,0.09,1.15,0.13,1.48c0.04,0.33,0.11,0.61,0.2,0.85c0.09,0.3,0.27,0.51,0.54,0.63
			c0.27,0.12,0.75,0.18,1.44,0.18c0.9,0,1.44-0.25,1.62-0.76c0.12-0.3,0.21-0.61,0.27-0.94c0.06-0.33,0.1-0.7,0.13-1.1
			c0.03-0.4,0.05-0.87,0.07-1.39c0.01-0.52,0.02-1.13,0.02-1.82H133.4z"/>
		<path class="st4" d="M147.79,139.03v-13.99h-4.41v13.99h-7.24v-34.04h7.24v13.18h4.41v-13.18h7.24v34.04H147.79z"/>
		<path class="st4" d="M168.7,139.03l-0.58-7.87h-3.42l-0.54,7.87h-7.11l3.64-34.04h11.87l3.42,34.04H168.7z M166.63,112.09h-0.5
			l-1.12,12.19h2.79L166.63,112.09z"/>
		<path class="st4" d="M178.1,139.03v-34.04h10.21c1.53,0,2.79,0.2,3.78,0.61c0.99,0.4,1.78,1.06,2.36,1.98
			c0.58,0.92,0.99,2.11,1.21,3.6c0.23,1.48,0.34,3.32,0.34,5.51c0,2.22-0.11,4.1-0.34,5.64c-0.22,1.54-0.63,2.8-1.21,3.75
			c-0.58,0.96-1.37,1.65-2.36,2.07c-0.99,0.42-2.25,0.63-3.78,0.63h-3.15v10.25H178.1z M187.05,121.76c0.66,0,1.12-0.37,1.39-1.1
			c0.27-0.73,0.4-2.12,0.4-4.16c0-1.8-0.16-2.98-0.47-3.55c-0.31-0.57-0.82-0.86-1.51-0.86h-1.71v9.67H187.05z"/>
		<path class="st4" d="M218.75,139.03v-20.42h-0.27l-5.17,20.42h-3.1l-5.22-20.42h-0.27v20.42h-6.43v-34.04h9.98l3.15,14.79h0.32
			l3.51-14.79h9.94l0.04,34.04H218.75z"/>
		<path class="st4" d="M238.9,139.03l-0.58-7.87h-3.42l-0.54,7.87h-7.11l3.64-34.04h11.87l3.42,34.04H238.9z M236.83,112.09h-0.5
			l-1.12,12.19H238L236.83,112.09z"/>
		<path class="st4" d="M263,139.03l-8.05-18.26h-0.27v18.26h-6.43v-34.04h6.92l4.77,11.83h0.27v-11.83h6.48v34.04H263z"/>
	</g>
	<g>
		<path class="st3" d="M33.18,156.88h-1.23c-0.08-0.23-0.13-0.77-0.15-1.64c-0.53,0.86-1.57,1.8-3.75,1.8
			c-3.49,0-5.34-2.65-5.34-6.08c0-3.62,1.98-6.34,5.63-6.34c2.81,0,4.58,1.52,4.92,3.68h-1.6c-0.41-1.35-1.38-2.35-3.35-2.35
			c-2.81,0-3.92,2.24-3.92,4.93c0,2.49,1.12,4.81,3.85,4.81c2.71,0,3.38-1.8,3.38-3.84v-0.13h-3.4v-1.37h4.97V156.88z"/>
		<path class="st3" d="M36.66,150.47c0-1.23-0.01-1.93-0.02-2.39h1.49c0.02,0.25,0.05,0.94,0.05,1.8c0.46-1.19,1.51-1.96,2.97-2.01
			v1.52c-1.81,0.05-2.97,1-2.97,3.22v4.28h-1.52V150.47z"/>
		<path class="st3" d="M49.93,154.96c0,0.8,0.07,1.67,0.12,1.92h-1.46c-0.07-0.2-0.12-0.61-0.14-1.15
			c-0.31,0.59-1.01,1.36-2.72,1.36c-2.08,0-2.96-1.35-2.96-2.69c0-1.97,1.55-2.87,4.16-2.87c0.61,0,1.17,0,1.5,0v-0.75
			c0-0.78-0.25-1.72-1.9-1.72c-1.47,0-1.72,0.73-1.88,1.42h-1.47c0.12-1.21,0.87-2.62,3.4-2.61c2.15,0.01,3.34,0.88,3.34,2.89
			V154.96z M48.44,152.59c-0.28,0-0.95,0-1.43,0c-1.76,0-2.7,0.49-2.7,1.73c0,0.92,0.63,1.58,1.71,1.58c2.12,0,2.41-1.43,2.41-3.03
			V152.59z"/>
		<path class="st3" d="M54.96,155.79v4.55h-1.51v-10.12c0-0.72,0-1.46-0.02-2.15h1.48c0.03,0.29,0.05,0.83,0.05,1.38
			c0.48-0.89,1.37-1.59,2.88-1.59c2.04,0,3.52,1.71,3.52,4.39c0,3.14-1.7,4.84-3.83,4.84C56.1,157.09,55.35,156.49,54.96,155.79z
			 M59.79,152.31c0-1.87-0.85-3.14-2.35-3.14c-1.83,0-2.55,1.15-2.55,3.29c0,2.08,0.59,3.35,2.43,3.35
			C58.93,155.81,59.79,154.48,59.79,152.31z"/>
		<path class="st3" d="M65.75,144.13v5.24c0.45-0.77,1.25-1.51,2.75-1.51c1.41,0,2.97,0.77,2.97,3.39v5.62h-1.52v-5.37
			c0-1.5-0.63-2.33-1.92-2.33c-1.58,0-2.29,1.05-2.29,2.88v4.82h-1.52v-12.75H65.75z"/>
		<path class="st3" d="M74.95,144.13h1.52v1.9h-1.52V144.13z M74.95,148.07h1.52v8.81h-1.52V148.07z"/>
		<path class="st3" d="M86.91,154.19c-0.37,1.52-1.4,2.9-3.64,2.9c-2.42,0-3.93-1.74-3.93-4.57c0-2.49,1.41-4.66,4.04-4.66
			c2.54,0,3.42,1.81,3.53,2.95H85.4c-0.22-0.9-0.78-1.67-2.05-1.67c-1.56,0-2.44,1.34-2.44,3.34c0,2.01,0.86,3.35,2.38,3.35
			c1.1,0,1.74-0.59,2.1-1.64H86.91z"/>
		<path class="st3" d="M95.14,144.79h4.32c3.4,0,5.7,2.32,5.7,5.92c0,3.58-2.24,6.17-5.75,6.17h-4.26V144.79z M96.74,155.52h2.54
			c2.85,0,4.2-2.04,4.2-4.77c0-2.39-1.23-4.59-4.19-4.59h-2.54V155.52z"/>
		<path class="st3" d="M109.13,152.75c0.01,1.79,0.91,3.07,2.41,3.07c1.39,0,1.84-0.72,2.13-1.36h1.53
			c-0.35,1.13-1.29,2.63-3.71,2.63c-2.77,0-3.9-2.25-3.9-4.52c0-2.62,1.32-4.71,4-4.71c2.84,0,3.77,2.28,3.77,4.16
			c0,0.27,0,0.49-0.02,0.73H109.13z M113.82,151.68c-0.02-1.45-0.75-2.61-2.25-2.61c-1.55,0-2.23,1.08-2.38,2.61H113.82z"/>
		<path class="st3" d="M119.07,154.36c0.25,0.96,0.97,1.53,2.16,1.53c1.29,0,1.8-0.56,1.8-1.36c0-0.82-0.41-1.21-2.09-1.61
			c-2.52-0.61-3.04-1.38-3.04-2.58c0-1.25,0.92-2.48,3.18-2.48c2.27,0,3.2,1.32,3.32,2.54h-1.47c-0.13-0.57-0.56-1.36-1.91-1.36
			c-1.23,0-1.6,0.59-1.6,1.17c0,0.66,0.36,0.98,1.98,1.37c2.67,0.63,3.21,1.53,3.21,2.83c0,1.54-1.22,2.67-3.42,2.67
			c-2.28,0-3.4-1.15-3.63-2.73H119.07z"/>
		<path class="st3" d="M127.44,144.13h1.52v1.9h-1.52V144.13z M127.44,148.07h1.52v8.81h-1.52V148.07z"/>
		<path class="st3" d="M139.7,156.09c0,2.82-1.17,4.43-4.04,4.43c-2.67,0-3.49-1.5-3.65-2.69h1.55c0.26,0.96,1.03,1.48,2.17,1.48
			c2,0,2.5-1.27,2.5-3.3v-0.71c-0.47,0.99-1.28,1.55-2.75,1.55c-2.17,0-3.65-1.77-3.65-4.35c0-2.88,1.67-4.63,3.8-4.63
			c1.68,0,2.39,0.79,2.6,1.37c0.02-0.4,0.05-0.98,0.07-1.17h1.44c-0.01,0.51-0.03,1.7-0.03,2.54V156.09z M133.4,152.42
			c0,1.86,0.97,3.12,2.41,3.12c1.9,0,2.46-1.28,2.46-3.23c0-1.98-0.52-3.16-2.4-3.16C134.23,149.15,133.4,150.52,133.4,152.42z"/>
		<path class="st3" d="M143.19,150.29c0-0.76,0-1.54-0.02-2.22h1.48c0.04,0.26,0.06,1.19,0.06,1.45c0.35-0.76,1.07-1.66,2.77-1.66
			c1.65,0,2.94,1.01,2.94,3.35v5.67h-1.52v-5.47c0-1.33-0.52-2.23-1.86-2.23c-1.66,0-2.33,1.26-2.33,3.04v4.66h-1.52V150.29z"/>
		<path class="st3" d="M153.38,157.77l4.86-13.15h1.36l-4.86,13.15H153.38z"/>
		<path class="st3" d="M162.84,144.79h4.59c2.35,0,3.96,1.31,3.96,3.52c0,2.36-1.7,3.6-4.06,3.6h-2.88v4.97h-1.61V144.79z
			 M164.46,150.57h2.8c1.65,0,2.48-0.81,2.48-2.21c0-1.47-1-2.21-2.42-2.21h-2.86V150.57z"/>
		<path class="st3" d="M175.68,144.13v5.24c0.45-0.77,1.25-1.51,2.75-1.51c1.41,0,2.97,0.77,2.97,3.39v5.62h-1.51v-5.37
			c0-1.5-0.63-2.33-1.92-2.33c-1.58,0-2.29,1.05-2.29,2.88v4.82h-1.52v-12.75H175.68z"/>
		<path class="st3" d="M192.45,152.46c0,2.54-1.46,4.63-4.15,4.63c-2.52,0-4.05-1.95-4.05-4.6c0-2.6,1.5-4.63,4.15-4.63
			C190.85,147.86,192.45,149.7,192.45,152.46z M185.82,152.48c0,1.93,0.96,3.34,2.55,3.34c1.61,0,2.52-1.34,2.52-3.34
			c0-1.98-0.9-3.35-2.55-3.35C186.68,149.14,185.82,150.47,185.82,152.48z"/>
		<path class="st3" d="M194.17,148.07h1.52v-2.6h1.52v2.6h1.94v1.24h-1.94v5.16c0,0.86,0.21,1.3,1.01,1.3
			c0.21,0,0.53-0.01,0.77-0.07v1.15c-0.38,0.14-0.9,0.16-1.32,0.16c-1.37,0-1.98-0.71-1.98-2.17v-5.52h-1.52V148.07z"/>
		<path class="st3" d="M209.18,152.46c0,2.54-1.46,4.63-4.15,4.63c-2.52,0-4.05-1.95-4.05-4.6c0-2.6,1.5-4.63,4.15-4.63
			C207.58,147.86,209.18,149.7,209.18,152.46z M202.55,152.48c0,1.93,0.96,3.34,2.55,3.34c1.61,0,2.52-1.34,2.52-3.34
			c0-1.98-0.9-3.35-2.55-3.35C203.42,149.14,202.55,150.47,202.55,152.48z"/>
		<path class="st3" d="M219.42,156.09c0,2.82-1.17,4.43-4.04,4.43c-2.67,0-3.49-1.5-3.65-2.69h1.55c0.26,0.96,1.03,1.48,2.17,1.48
			c2,0,2.5-1.27,2.5-3.3v-0.71c-0.47,0.99-1.28,1.55-2.75,1.55c-2.17,0-3.65-1.77-3.65-4.35c0-2.88,1.67-4.63,3.8-4.63
			c1.68,0,2.39,0.79,2.6,1.37c0.02-0.4,0.05-0.98,0.07-1.17h1.44c-0.01,0.51-0.03,1.7-0.03,2.54V156.09z M213.12,152.42
			c0,1.86,0.97,3.12,2.41,3.12c1.9,0,2.46-1.28,2.46-3.23c0-1.98-0.52-3.16-2.4-3.16C213.94,149.15,213.12,150.52,213.12,152.42z"/>
		<path class="st3" d="M222.9,150.47c0-1.23-0.01-1.93-0.02-2.39h1.49c0.02,0.25,0.05,0.94,0.05,1.8c0.46-1.19,1.51-1.96,2.97-2.01
			v1.52c-1.81,0.05-2.97,1-2.97,3.22v4.28h-1.52V150.47z"/>
		<path class="st3" d="M236.16,154.96c0,0.8,0.07,1.67,0.12,1.92h-1.46c-0.07-0.2-0.12-0.61-0.14-1.15
			c-0.31,0.59-1.01,1.36-2.72,1.36c-2.08,0-2.96-1.35-2.96-2.69c0-1.97,1.55-2.87,4.16-2.87c0.61,0,1.17,0,1.5,0v-0.75
			c0-0.78-0.25-1.72-1.9-1.72c-1.47,0-1.72,0.73-1.88,1.42h-1.47c0.12-1.21,0.87-2.62,3.4-2.61c2.15,0.01,3.34,0.88,3.34,2.89
			V154.96z M234.68,152.59c-0.28,0-0.95,0-1.43,0c-1.76,0-2.7,0.49-2.7,1.73c0,0.92,0.63,1.58,1.71,1.58c2.12,0,2.41-1.43,2.41-3.03
			V152.59z"/>
		<path class="st3" d="M241.19,155.79v4.55h-1.52v-10.12c0-0.72,0-1.46-0.02-2.15h1.48c0.03,0.29,0.05,0.83,0.05,1.38
			c0.48-0.89,1.37-1.59,2.88-1.59c2.04,0,3.52,1.71,3.52,4.39c0,3.14-1.7,4.84-3.83,4.84C242.33,157.09,241.59,156.49,241.19,155.79
			z M246.02,152.31c0-1.87-0.85-3.14-2.35-3.14c-1.83,0-2.55,1.15-2.55,3.29c0,2.08,0.59,3.35,2.43,3.35
			C245.16,155.81,246.02,154.48,246.02,152.31z"/>
		<path class="st3" d="M251.99,144.13v5.24c0.45-0.77,1.25-1.51,2.75-1.51c1.41,0,2.97,0.77,2.97,3.39v5.62h-1.52v-5.37
			c0-1.5-0.63-2.33-1.92-2.33c-1.58,0-2.29,1.05-2.29,2.88v4.82h-1.52v-12.75H251.99z"/>
		<path class="st3" d="M261.63,148.07c1.42,4.22,2.21,6.56,2.44,7.45h0.02c0.29-1,0.91-3.01,2.35-7.45h1.54l-3.17,9.21
			c-0.9,2.58-1.56,3.23-3.36,3.23c-0.28,0-0.61-0.02-0.95-0.06v-1.32c0.22,0.03,0.48,0.05,0.73,0.05c1.12,0,1.54-0.49,2.06-1.96
			l-3.3-9.15H261.63z"/>
	</g>
</g>
<g>
	<path class="st3" d="M86.86,54.24h14.39c-1.14,11.93,6.98,19.14,16.81,18.87c12.5,0.56,20.23-6.1,20.8-17.9V42.45
		c0.24-12.21,13.44-26.17,21.7-28.86c11.11-4.44,34.38-6.1,45.12,8.14l-9.12,8.79c-7.12-6.47-13.2-6.84-20.52-6.75
		c-14.25,1.48-18.43,7.86-21.94,15.08c-1.14,3.42-1.57,5.4-1.57,8.81v11.72c-1.21,13.25-13.32,24.07-22.01,25.46
		c-14.82,2.43-23.41,2.09-31.7-4.65C91.49,74.22,87.79,70.13,86.86,54.24z"/>
	<path class="st4" d="M116.18,12.05l-0.04,12.75l22.46-0.07c0.42-3.88,10.38-11.86,11.27-12.73L116.18,12.05z"/>
	<path class="st4" d="M157.91,65.11c-1.23,7.03-4.99,11.47-5.98,13.18c10.09,9.11,30.04,9.11,37.66,6.96
		c6.27-1.13,15.34-7.61,17.14-9.69l-9.76-9.5c-4.78,4.62-11.02,7.47-18.5,7.61C165.65,73.67,161.85,68.49,157.91,65.11z"/>
</g>
</svg>
